# xmcd CD database file
#
# Track frame offsets:
#	150
#	16587
#	31185
#	44110
#	61282
#	81232
#	102217
#	119880
#	134367
#	150880
#	165760
#	182817
#	196892
#	214680
#	233457
#
# Disc length: 3330 seconds
#
# Revision: 15
# Processed by: cddbd v1.5.2PL0 Copyright (c) Steve Scherf et al.
# Submitted via: FreeDB 10.8
#
DISCID=b80d000f
DTITLE=Ace Of Base - The Bridge
DYEAR=1995
DGENRE=Electronic
TTITLE0=Beautiful Life
TTITLE1=Never Gonna Say I'm Sorry
TTITLE2=Lucky Love [Acoustic Version]
TTITLE3=Edge of Heaven
TTITLE4=Strange Ways
TTITLE5=Ravine
TTITLE6=Perfect World
TTITLE7=Angel Eyes
TTITLE8=My Dejavu
TTITLE9=Wave Wet Sand
TTITLE10=Que Sera
TTITLE11=Just 'N' Image
TTITLE12=Experience Pearls
TTITLE13=Whispers in Blindness
TTITLE14=Blooming 18
EXTD=YEAR: 1995
EXTT0=
EXTT1=
EXTT2=
EXTT3=
EXTT4=
EXTT5=
EXTT6=
EXTT7=
EXTT8=
EXTT9=
EXTT10=
EXTT11=
EXTT12=
EXTT13=
EXTT14=
PLAYORDER=
